<?xml version="1.0" encoding="utf-8"?>
<!-- Generator: Adobe Illustrator 15.1.0, SVG Export Plug-In  -->
<!DOCTYPE svg PUBLIC "-//W3C//DTD SVG 1.1//EN" "http://www.w3.org/Graphics/SVG/1.1/DTD/svg11.dtd" [
	<!ENTITY ns_flows "http://ns.adobe.com/Flows/1.0/">
]>
<svg version="1.1"
	 xmlns="http://www.w3.org/2000/svg" xmlns:xlink="http://www.w3.org/1999/xlink" xmlns:a="http://ns.adobe.com/AdobeSVGViewerExtensions/3.0/"
	 x="0px" y="0px" width="1600px" height="900px" viewBox="0 0 1600 900" overflow="visible" enable-background="new 0 0 1600 900"
	 xml:space="preserve">
<defs>
</defs>
<rect fill="#F4F2EF" width="1599.999" height="899.998"/>
<path fill="#E5DADA" d="M376.098,552.156c20.477,10.75,53.242,21.498,86.523,21.498c35.836,0,54.773-14.842,54.773-37.373
	c0-21.5-16.383-33.789-57.852-48.125c-57.336-20.477-95.219-52.219-95.219-102.391c0-58.875,49.656-103.414,130.547-103.414
	c39.422,0,67.578,7.68,88.055,17.406l-17.406,62.461c-13.312-6.656-38.398-16.391-71.672-16.391
	c-33.789,0-50.172,15.875-50.172,33.281c0,22.016,18.945,31.742,63.992,48.641c60.922,22.523,89.086,54.266,89.086,102.899
	c0,57.85-44.031,106.998-138.742,106.998c-39.422,0-78.336-10.75-97.789-21.5L376.098,552.156z"/>
<path fill="#5486F7" d="M448.012,629.646c-40.811,0-79.801-11.273-98.756-21.75l-1.344-0.742l16.857-67.953l2.258,1.184
	c19.588,10.283,52.357,21.27,85.594,21.27c33.045,0,52.773-13.223,52.773-35.373c0-19.713-14.787-31.813-56.506-46.235
	c-64.984-23.209-96.564-57.316-96.564-104.281c0-63.051,53.266-105.414,132.547-105.414c34.412,0,64.328,5.922,88.912,17.6
	l1.521,0.723l-18.51,66.418l-2.17-1.084c-14.762-7.381-39.023-16.18-70.777-16.18c-33.277,0-48.172,15.711-48.172,31.281
	c0,19.889,15.654,29.121,62.695,46.768c62.504,23.109,90.383,55.424,90.383,104.772
	C588.754,573.341,551.781,629.646,448.012,629.646z M352.537,605.123c18.982,10.023,56.322,20.523,95.475,20.523
	c100.82,0,136.742-54.238,136.742-104.998c0-47.422-27.072-78.579-87.779-101.024c-45.404-17.031-65.299-26.955-65.299-50.516
	c0-17.561,16.133-35.281,52.172-35.281c31.021,0,55.088,8.209,70.391,15.537l16.307-58.514c-23.758-10.949-52.57-16.5-85.674-16.5
	c-76.889,0-128.547,40.756-128.547,101.414c0,45.068,30.713,77.943,93.891,100.508c43.689,15.102,59.18,28.19,59.18,50.008
	c0,24.656-21.225,39.373-56.773,39.373c-32.713,0-64.979-10.414-85.189-20.564L352.537,605.123z"/>
<path fill="#E5DADA" d="M731.418,632.529L620.832,287.468h85.492l41.984,145.906c11.773,41.469,23.293,80.383,31.488,123.383l0,0
	c8.703-41.469,20.223-82.422,31.996-121.844l44.03-147.445h82.938L822.544,632.529H731.418z"/>
<path fill="#5486F7" d="M813.98,624.529h-94.021L608.092,275.468h89.738l45.768,159.18c9.787,34.346,19.078,66.942,26.283,102.211
	c8.883-40.321,20.074-79.295,29.996-112.518l44.458-148.873h87.211L813.98,624.529z M722.877,620.529h88.229l114.874-341.061
	h-78.664l-43.606,146.018c-10.674,35.744-22.818,78.153-31.955,121.682l-2.051,9.775l-1.871-9.811
	c-7.395-38.805-17.443-74.061-28.082-111.389l-3.365-11.822l-41.566-144.453h-81.246L722.877,620.529z"/>
<path fill="#E5DADA" d="M1259.776,616.662c-24.062,8.188-69.625,19.453-115.188,19.453c-62.977,0-108.539-15.875-140.281-46.078
	c-31.227-30.201-48.633-75.256-48.633-125.944c0.508-114.68,83.961-180.211,197.102-180.211c44.539,0,78.844,8.703,95.734,16.383
	l-16.383,62.977c-18.938-8.703-41.977-14.852-79.859-14.852c-65.023,0-114.68,36.352-114.68,111.609
	c0,71.672,45.047,113.139,109.047,113.139c17.406,0,31.742-2.047,37.883-4.602v-72.702h-53.242v-60.922h128.5V616.662z"/>
<path fill="#5486F7" d="M1134.589,628.115c-62.348,0-108.684-15.25-141.66-46.629c-31.766-30.723-49.254-75.963-49.254-127.393
	c0.492-110.691,78.645-182.211,199.102-182.211c44.34,0,78.953,8.555,96.562,16.562l1.531,0.695l-17.406,66.916l-2.172-0.998
	c-14.859-6.828-37.273-14.668-79.023-14.668c-70.555,0-112.68,40.975-112.68,109.609c0,67.516,42.02,111.139,107.047,111.139
	c16.98,0,29.883-1.934,35.883-3.984v-69.319h-53.242v-64.922h132.5v185.182l-1.355,0.461
	C1222.632,618.013,1177.608,628.115,1134.589,628.115z M1142.776,275.882c-118.039,0-194.621,69.955-195.102,178.221
	c0,50.327,17.055,94.545,48.023,124.497c32.184,30.625,77.621,45.516,138.891,45.516c41.84,0,85.605-9.672,113.188-18.887V426.913
	h-124.5v56.922h53.242v76.038l-1.23,0.512c-6.945,2.887-22.117,4.754-38.652,4.754c-67.457,0-111.047-45.193-111.047-115.139
	c0-70.076,44.711-113.609,116.68-113.609c32.125,0,56.473,4.346,78.52,14.057l15.359-59.041
	C1218.483,283.774,1185.214,275.882,1142.776,275.882z"/>
<rect x="352.324" y="311.765" fill="#5486F7" width="4" height="128"/>
<circle fill="#5486F7" cx="354.324" cy="311.765" r="6"/>
<circle fill="#5486F7" cx="354.324" cy="439.765" r="6"/>
<rect x="348.324" y="369.765" fill="#FFFFFF" width="12" height="12"/>
<path fill="#5486F7" d="M362.324,383.765h-16v-16h16V383.765z M350.324,379.765h8v-8h-8V379.765z"/>
<rect x="584.754" y="456.647" fill="#5486F7" width="4" height="127.999"/>
<circle fill="#5486F7" cx="586.754" cy="456.647" r="6"/>
<circle fill="#5486F7" cx="586.754" cy="584.646" r="6"/>
<rect x="580.754" y="514.648" fill="#FFFFFF" width="12" height="12"/>
<path fill="#5486F7" d="M594.754,528.648h-16v-16h16V528.648z M582.754,524.648h8v-8h-8V524.648z"/>
<rect x="420.871" y="270.351" fill="#5486F7" width="128" height="4"/>
<circle fill="#5486F7" cx="420.871" cy="272.351" r="6"/>
<circle fill="#5486F7" cx="548.871" cy="272.351" r="6"/>
<rect x="478.871" y="266.351" fill="#FFFFFF" width="12" height="12"/>
<path fill="#5486F7" d="M492.871,280.351h-16v-16h16V280.351z M480.871,276.351h8v-8h-8V276.351z"/>
<rect x="384.012" y="625.646" fill="#5486F7" width="128" height="4"/>
<circle fill="#5486F7" cx="384.012" cy="627.646" r="6"/>
<circle fill="#5486F7" cx="512.012" cy="627.646" r="6"/>
<rect x="442.012" y="621.646" fill="#FFFFFF" width="12" height="12"/>
<path fill="#5486F7" d="M456.012,635.646h-16v-16h16V635.646z M444.012,631.646h8v-8h-8V631.646z"/>
<rect x="604.832" y="271.468" fill="#FFFFFF" width="12" height="12"/>
<path fill="#5486F7" d="M618.832,285.468h-16v-16h16V285.468z M606.832,281.468h8v-8h-8V281.468z"/>
<rect x="690.324" y="271.468" fill="#FFFFFF" width="12" height="12"/>
<path fill="#5486F7" d="M704.324,285.468h-16v-16h16V285.468z M692.324,281.468h8v-8h-8V281.468z"/>
<rect x="763.797" y="540.757" fill="#FFFFFF" width="12" height="12"/>
<path fill="#5486F7" d="M777.797,554.757h-16v-16h16V554.757z M765.797,550.757h8v-8h-8V550.757z"/>
<rect x="839.823" y="271.468" fill="#FFFFFF" width="12" height="12"/>
<path fill="#5486F7" d="M853.823,285.468h-16v-16h16V285.468z M841.823,281.468h8v-8h-8V281.468z"/>
<rect x="922.761" y="271.468" fill="#FFFFFF" width="12" height="12"/>
<path fill="#5486F7" d="M936.761,285.468h-16v-16h16V285.468z M924.761,281.468h8v-8h-8V281.468z"/>
<rect x="715.418" y="616.529" fill="#FFFFFF" width="12" height="12"/>
<path fill="#5486F7" d="M729.418,630.529h-16v-16h16V630.529z M717.418,626.529h8v-8h-8V626.529z"/>
<rect x="806.543" y="616.529" fill="#FFFFFF" width="11.999" height="12"/>
<path fill="#5486F7" d="M820.542,630.529h-15.999v-16h15.999V630.529z M808.543,626.529h8v-8h-8V626.529z"/>
<rect x="1168.519" y="479.835" fill="#FFFFFF" width="12" height="12"/>
<path fill="#5486F7" d="M1182.519,493.835h-16v-16h16V493.835z M1170.519,489.835h8v-8h-8V489.835z"/>
<rect x="1115.276" y="479.835" fill="#FFFFFF" width="12" height="12"/>
<path fill="#5486F7" d="M1129.276,493.835h-16v-16h16V493.835z M1117.276,489.835h8v-8h-8V489.835z"/>
<rect x="1115.276" y="418.913" fill="#FFFFFF" width="12" height="12"/>
<path fill="#5486F7" d="M1129.276,432.913h-16v-16h16V432.913z M1117.276,428.913h8v-8h-8V428.913z"/>
<rect x="1243.776" y="418.913" fill="#FFFFFF" width="12" height="12"/>
<path fill="#5486F7" d="M1257.776,432.913h-16v-16h16V432.913z M1245.776,428.913h8v-8h-8V428.913z"/>
<rect x="1168.519" y="552.539" fill="#FFFFFF" width="12" height="11.998"/>
<path fill="#5486F7" d="M1182.519,566.537h-16v-15.998h16V566.537z M1170.519,562.537h8v-7.998h-8V562.537z"/>
<rect x="1243.776" y="600.662" fill="#FFFFFF" width="12" height="12"/>
<path fill="#5486F7" d="M1257.776,614.662h-16v-16h16V614.662z M1245.776,610.662h8v-8h-8V610.662z"/>
<rect x="943.675" y="350.089" fill="#5486F7" width="4" height="208.006"/>
<circle fill="#5486F7" cx="945.675" cy="350.089" r="6"/>
<circle fill="#5486F7" cx="945.675" cy="558.095" r="6"/>
<rect x="939.675" y="448.093" fill="#FFFFFF" width="12" height="12"/>
<path fill="#5486F7" d="M953.675,462.093h-16v-16h16V462.093z M941.675,458.093h8v-8h-8V458.093z"/>
<rect x="1038.772" y="271.882" fill="#5486F7" width="168.004" height="4"/>
<circle fill="#5486F7" cx="1038.772" cy="273.882" r="6"/>
<circle fill="#5486F7" cx="1206.776" cy="273.882" r="6"/>
<rect x="1136.776" y="267.882" fill="#FFFFFF" width="12" height="12"/>
<path fill="#5486F7" d="M1150.776,281.882h-16v-16h16V281.882z M1138.776,277.882h8v-8h-8V277.882z"/>
<rect x="1030.585" y="624.115" fill="#5486F7" width="168.004" height="4"/>
<circle fill="#5486F7" cx="1030.585" cy="626.115" r="6"/>
<circle fill="#5486F7" cx="1198.589" cy="626.115" r="6"/>
<rect x="1128.589" y="620.115" fill="#FFFFFF" width="12" height="12"/>
<path fill="#5486F7" d="M1142.589,634.115h-16v-16h16V634.115z M1130.589,630.115h8v-8h-8V630.115z"/>
<rect x="1025.589" y="390.093" fill="#5486F7" width="4" height="128"/>
<circle fill="#5486F7" cx="1027.589" cy="390.093" r="6"/>
<circle fill="#5486F7" cx="1027.589" cy="518.093" r="6"/>
<rect x="1021.589" y="448.093" fill="#FFFFFF" width="12" height="12"/>
<path fill="#5486F7" d="M1035.589,462.093h-16v-16h16V462.093z M1023.589,458.093h8v-8h-8V458.093z"/>
<rect x="431.676" y="325.108" fill="#5486F7" width="4" height="88"/>
<circle fill="#5486F7" cx="433.676" cy="325.108" r="6"/>
<circle fill="#5486F7" cx="433.676" cy="413.108" r="6"/>
<rect x="427.676" y="363.108" fill="#FFFFFF" width="12" height="12"/>
<path fill="#5486F7" d="M441.676,377.108h-16v-16h16V377.108z M429.676,373.108h8v-8h-8V373.108z"/>
<rect x="505.395" y="482.28" fill="#5486F7" width="4" height="87.999"/>
<circle fill="#5486F7" cx="507.395" cy="482.28" r="6"/>
<circle fill="#5486F7" cx="507.395" cy="570.279" r="6"/>
<rect x="501.395" y="520.281" fill="#FFFFFF" width="12" height="12"/>
<path fill="#5486F7" d="M515.395,534.281h-16v-16h16V534.281z M503.395,530.281h8v-8h-8V530.281z"/>
<rect x="549.52" y="346.218" fill="#FFFFFF" width="12" height="12"/>
<path fill="#5486F7" d="M563.52,360.218h-16v-16h16V360.218z M551.52,356.218h8v-8h-8V356.218z"/>
<rect x="566.926" y="283.757" fill="#FFFFFF" width="12" height="12"/>
<path fill="#5486F7" d="M580.926,297.757h-16v-16h16V297.757z M568.926,293.757h8v-8h-8V293.757z"/>
<rect x="360.098" y="536.156" fill="#FFFFFF" width="12" height="12"/>
<path fill="#5486F7" d="M374.098,550.156h-16v-16h16V550.156z M362.098,546.156h8v-8h-8V546.156z"/>
<rect x="344.223" y="600.146" fill="#FFFFFF" width="12" height="12"/>
<path fill="#5486F7" d="M358.223,614.146h-16v-16h16V614.146z M346.223,610.146h8v-8h-8V610.146z"/>
<rect x="1216.128" y="347.241" fill="#FFFFFF" width="12" height="12"/>
<path fill="#5486F7" d="M1230.128,361.241h-16v-16h16V361.241z M1218.128,357.241h8v-8h-8V357.241z"/>
<rect x="1232.511" y="284.265" fill="#FFFFFF" width="12" height="12"/>
<path fill="#5486F7" d="M1246.511,298.265h-16v-16h16V298.265z M1234.511,294.265h8v-8h-8V294.265z"/>
</svg>
